<mxfile host="Electron" agent="Mozilla/5.0 (Windows NT 10.0; Win64; x64) AppleWebKit/537.36 (KHTML, like Gecko) draw.io/24.7.17 Chrome/128.0.6613.36 Electron/32.0.1 Safari/537.36" version="24.7.17">
  <diagram name="Trang-1" id="inDniW_VtYO2OvrzdMfV">
    <mxGraphModel dx="2284" dy="1944" grid="1" gridSize="10" guides="1" tooltips="1" connect="1" arrows="1" fold="1" page="1" pageScale="1" pageWidth="850" pageHeight="1100" math="0" shadow="0">
      <root>
        <mxCell id="0" />
        <mxCell id="1" parent="0" />
        <mxCell id="xg3Bb7GyrJBCw5qVwK3y-4" style="edgeStyle=orthogonalEdgeStyle;rounded=0;orthogonalLoop=1;jettySize=auto;html=1;exitX=0.5;exitY=1;exitDx=0;exitDy=0;entryX=0.5;entryY=0;entryDx=0;entryDy=0;" parent="1" source="sEMsbliK2M1mCnXl6dCs-1" target="sEMsbliK2M1mCnXl6dCs-2" edge="1">
          <mxGeometry relative="1" as="geometry" />
        </mxCell>
        <mxCell id="sEMsbliK2M1mCnXl6dCs-1" value="Bắt đầu" style="rounded=1;whiteSpace=wrap;html=1;" parent="1" vertex="1">
          <mxGeometry x="120" y="-20" width="120" height="60" as="geometry" />
        </mxCell>
        <mxCell id="xg3Bb7GyrJBCw5qVwK3y-5" style="edgeStyle=orthogonalEdgeStyle;rounded=0;orthogonalLoop=1;jettySize=auto;html=1;exitX=0.5;exitY=1;exitDx=0;exitDy=0;entryX=0.5;entryY=0;entryDx=0;entryDy=0;" parent="1" source="sEMsbliK2M1mCnXl6dCs-2" target="sEMsbliK2M1mCnXl6dCs-4" edge="1">
          <mxGeometry relative="1" as="geometry" />
        </mxCell>
        <mxCell id="sEMsbliK2M1mCnXl6dCs-2" value="Chạy vòng lặp với mỗi cạnh trong mảng cacCanh. i ++" style="rounded=0;whiteSpace=wrap;html=1;" parent="1" vertex="1">
          <mxGeometry x="120" y="60" width="120" height="60" as="geometry" />
        </mxCell>
        <mxCell id="zqPzzKvpjSJ5xcL5_iSQ-11" style="edgeStyle=orthogonalEdgeStyle;rounded=0;orthogonalLoop=1;jettySize=auto;html=1;exitX=0.5;exitY=1;exitDx=0;exitDy=0;entryX=0.5;entryY=0;entryDx=0;entryDy=0;" parent="1" source="sEMsbliK2M1mCnXl6dCs-4" target="sEMsbliK2M1mCnXl6dCs-6" edge="1">
          <mxGeometry relative="1" as="geometry" />
        </mxCell>
        <mxCell id="sEMsbliK2M1mCnXl6dCs-4" value="Cho x1. y1 là vị trí của đỉnh hiện tại.&lt;div&gt;Cho x2. y2 là vị trí của đỉnh tiếp theo&lt;br&gt;&lt;/div&gt;" style="rounded=0;whiteSpace=wrap;html=1;" parent="1" vertex="1">
          <mxGeometry x="77.5" y="150" width="205" height="95" as="geometry" />
        </mxCell>
        <mxCell id="xg3Bb7GyrJBCw5qVwK3y-8" style="edgeStyle=orthogonalEdgeStyle;rounded=0;orthogonalLoop=1;jettySize=auto;html=1;exitX=0.5;exitY=1;exitDx=0;exitDy=0;entryX=0.5;entryY=0;entryDx=0;entryDy=0;" parent="1" source="sEMsbliK2M1mCnXl6dCs-6" target="sEMsbliK2M1mCnXl6dCs-8" edge="1">
          <mxGeometry relative="1" as="geometry" />
        </mxCell>
        <mxCell id="zqPzzKvpjSJ5xcL5_iSQ-14" style="edgeStyle=orthogonalEdgeStyle;rounded=0;orthogonalLoop=1;jettySize=auto;html=1;exitX=1;exitY=0.5;exitDx=0;exitDy=0;entryX=1;entryY=0.5;entryDx=0;entryDy=0;" parent="1" source="sEMsbliK2M1mCnXl6dCs-6" target="sEMsbliK2M1mCnXl6dCs-4" edge="1">
          <mxGeometry relative="1" as="geometry">
            <Array as="points">
              <mxPoint x="330" y="360" />
              <mxPoint x="330" y="197" />
            </Array>
          </mxGeometry>
        </mxCell>
        <mxCell id="sEMsbliK2M1mCnXl6dCs-6" value="i nhỏ hơn&amp;nbsp;&lt;div&gt;kích thước&amp;nbsp;&lt;/div&gt;&lt;div&gt;của mảng cacCanh&lt;/div&gt;" style="rhombus;whiteSpace=wrap;html=1;" parent="1" vertex="1">
          <mxGeometry x="105" y="285" width="150" height="150" as="geometry" />
        </mxCell>
        <mxCell id="xg3Bb7GyrJBCw5qVwK3y-10" style="edgeStyle=orthogonalEdgeStyle;rounded=0;orthogonalLoop=1;jettySize=auto;html=1;exitX=0.5;exitY=1;exitDx=0;exitDy=0;entryX=0.5;entryY=0;entryDx=0;entryDy=0;" parent="1" source="sEMsbliK2M1mCnXl6dCs-7" target="sEMsbliK2M1mCnXl6dCs-9" edge="1">
          <mxGeometry relative="1" as="geometry" />
        </mxCell>
        <mxCell id="zqPzzKvpjSJ5xcL5_iSQ-13" style="edgeStyle=orthogonalEdgeStyle;rounded=0;orthogonalLoop=1;jettySize=auto;html=1;exitX=0.5;exitY=0;exitDx=0;exitDy=0;entryX=0;entryY=0.5;entryDx=0;entryDy=0;" parent="1" source="sEMsbliK2M1mCnXl6dCs-7" target="sEMsbliK2M1mCnXl6dCs-4" edge="1">
          <mxGeometry relative="1" as="geometry" />
        </mxCell>
        <mxCell id="sEMsbliK2M1mCnXl6dCs-7" value="Nếu cạnh[0]&amp;nbsp;&amp;nbsp;&lt;div&gt;bằng đỉnh&amp;nbsp;&lt;/div&gt;&lt;div&gt;hiển tại và cạnh [1]&lt;/div&gt;&lt;div&gt;&amp;nbsp;bằng đỉnh&amp;nbsp;&lt;/div&gt;&lt;div&gt;tiếp theo.&lt;br&gt;Hoặc&lt;br&gt;Nếu cạnh[0]&amp;nbsp;&amp;nbsp;&lt;div&gt;bằng đỉnh&amp;nbsp;&lt;/div&gt;&lt;div&gt;tiếp theo và cạnh [1]&lt;/div&gt;&lt;div&gt;&amp;nbsp;bằng đỉnh&amp;nbsp;&lt;/div&gt;&lt;div&gt;hiện tại&lt;/div&gt;&lt;/div&gt;" style="rhombus;whiteSpace=wrap;html=1;" parent="1" vertex="1">
          <mxGeometry x="-180" y="375" width="250" height="250" as="geometry" />
        </mxCell>
        <mxCell id="xg3Bb7GyrJBCw5qVwK3y-9" style="edgeStyle=orthogonalEdgeStyle;rounded=0;orthogonalLoop=1;jettySize=auto;html=1;exitX=0;exitY=0.5;exitDx=0;exitDy=0;entryX=1;entryY=0.5;entryDx=0;entryDy=0;" parent="1" source="sEMsbliK2M1mCnXl6dCs-8" target="sEMsbliK2M1mCnXl6dCs-7" edge="1">
          <mxGeometry relative="1" as="geometry" />
        </mxCell>
        <mxCell id="sEMsbliK2M1mCnXl6dCs-8" value="Cho biến&amp;nbsp;&lt;div&gt;cạnh = cacCanh[i]&lt;/div&gt;" style="rounded=0;whiteSpace=wrap;html=1;" parent="1" vertex="1">
          <mxGeometry x="120" y="470" width="120" height="60" as="geometry" />
        </mxCell>
        <mxCell id="xg3Bb7GyrJBCw5qVwK3y-11" style="edgeStyle=orthogonalEdgeStyle;rounded=0;orthogonalLoop=1;jettySize=auto;html=1;exitX=0.5;exitY=1;exitDx=0;exitDy=0;entryX=0.5;entryY=0;entryDx=0;entryDy=0;" parent="1" source="sEMsbliK2M1mCnXl6dCs-9" target="xg3Bb7GyrJBCw5qVwK3y-2" edge="1">
          <mxGeometry relative="1" as="geometry" />
        </mxCell>
        <mxCell id="sEMsbliK2M1mCnXl6dCs-9" value="Tăng biến đếm cạnh trùng" style="rounded=0;whiteSpace=wrap;html=1;" parent="1" vertex="1">
          <mxGeometry x="-115" y="670" width="120" height="60" as="geometry" />
        </mxCell>
        <mxCell id="xg3Bb7GyrJBCw5qVwK3y-14" style="edgeStyle=orthogonalEdgeStyle;rounded=0;orthogonalLoop=1;jettySize=auto;html=1;exitX=0.5;exitY=1;exitDx=0;exitDy=0;entryX=0.5;entryY=0;entryDx=0;entryDy=0;" parent="1" source="xg3Bb7GyrJBCw5qVwK3y-1" target="xg3Bb7GyrJBCw5qVwK3y-13" edge="1">
          <mxGeometry relative="1" as="geometry" />
        </mxCell>
        <mxCell id="zqPzzKvpjSJ5xcL5_iSQ-2" style="edgeStyle=orthogonalEdgeStyle;rounded=0;orthogonalLoop=1;jettySize=auto;html=1;exitX=1;exitY=0.5;exitDx=0;exitDy=0;entryX=0;entryY=0.5;entryDx=0;entryDy=0;" parent="1" source="xg3Bb7GyrJBCw5qVwK3y-1" target="zqPzzKvpjSJ5xcL5_iSQ-1" edge="1">
          <mxGeometry relative="1" as="geometry" />
        </mxCell>
        <mxCell id="xg3Bb7GyrJBCw5qVwK3y-1" value="Nếu biến đếm&amp;nbsp;&lt;div&gt;cạnh trùng&amp;nbsp;&lt;/div&gt;&lt;div&gt;lớn hơn 1&amp;nbsp;&lt;/div&gt;&lt;div&gt;tức là có&amp;nbsp;&lt;/div&gt;&lt;div&gt;2 đỉnh bị trùng&lt;/div&gt;" style="rhombus;whiteSpace=wrap;html=1;" parent="1" vertex="1">
          <mxGeometry x="105" y="570" width="150" height="150" as="geometry" />
        </mxCell>
        <mxCell id="zqPzzKvpjSJ5xcL5_iSQ-10" style="edgeStyle=orthogonalEdgeStyle;rounded=0;orthogonalLoop=1;jettySize=auto;html=1;exitX=1;exitY=0.5;exitDx=0;exitDy=0;entryX=0;entryY=0.5;entryDx=0;entryDy=0;" parent="1" source="xg3Bb7GyrJBCw5qVwK3y-2" target="xg3Bb7GyrJBCw5qVwK3y-1" edge="1">
          <mxGeometry relative="1" as="geometry" />
        </mxCell>
        <mxCell id="xg3Bb7GyrJBCw5qVwK3y-2" value="Kết thúc vòng lặp" style="rounded=0;whiteSpace=wrap;html=1;" parent="1" vertex="1">
          <mxGeometry x="-115" y="760" width="120" height="60" as="geometry" />
        </mxCell>
        <mxCell id="zqPzzKvpjSJ5xcL5_iSQ-9" value="" style="edgeStyle=orthogonalEdgeStyle;rounded=0;orthogonalLoop=1;jettySize=auto;html=1;" parent="1" source="xg3Bb7GyrJBCw5qVwK3y-13" target="zqPzzKvpjSJ5xcL5_iSQ-7" edge="1">
          <mxGeometry relative="1" as="geometry" />
        </mxCell>
        <mxCell id="xg3Bb7GyrJBCw5qVwK3y-13" value="Vẽ đường cong" style="rounded=0;whiteSpace=wrap;html=1;" parent="1" vertex="1">
          <mxGeometry x="120" y="757" width="120" height="60" as="geometry" />
        </mxCell>
        <mxCell id="zqPzzKvpjSJ5xcL5_iSQ-8" value="" style="edgeStyle=orthogonalEdgeStyle;rounded=0;orthogonalLoop=1;jettySize=auto;html=1;" parent="1" source="zqPzzKvpjSJ5xcL5_iSQ-1" target="zqPzzKvpjSJ5xcL5_iSQ-7" edge="1">
          <mxGeometry relative="1" as="geometry" />
        </mxCell>
        <mxCell id="zqPzzKvpjSJ5xcL5_iSQ-1" value="Vẽ đường thẳng" style="rounded=0;whiteSpace=wrap;html=1;" parent="1" vertex="1">
          <mxGeometry x="293" y="615" width="120" height="60" as="geometry" />
        </mxCell>
        <mxCell id="zqPzzKvpjSJ5xcL5_iSQ-3" value="Đúng" style="text;html=1;align=center;verticalAlign=middle;resizable=0;points=[];autosize=1;strokeColor=none;fillColor=none;" parent="1" vertex="1">
          <mxGeometry x="131" y="722" width="50" height="30" as="geometry" />
        </mxCell>
        <mxCell id="zqPzzKvpjSJ5xcL5_iSQ-4" value="Sai" style="text;html=1;align=center;verticalAlign=middle;resizable=0;points=[];autosize=1;strokeColor=none;fillColor=none;" parent="1" vertex="1">
          <mxGeometry x="252" y="646" width="40" height="30" as="geometry" />
        </mxCell>
        <mxCell id="zqPzzKvpjSJ5xcL5_iSQ-5" value="Sai" style="text;html=1;align=center;verticalAlign=middle;resizable=0;points=[];autosize=1;strokeColor=none;fillColor=none;" parent="1" vertex="1">
          <mxGeometry x="-54" y="345" width="40" height="30" as="geometry" />
        </mxCell>
        <mxCell id="zqPzzKvpjSJ5xcL5_iSQ-6" value="Đúng" style="text;html=1;align=center;verticalAlign=middle;resizable=0;points=[];autosize=1;strokeColor=none;fillColor=none;" parent="1" vertex="1">
          <mxGeometry x="-105" y="628" width="50" height="30" as="geometry" />
        </mxCell>
        <mxCell id="zqPzzKvpjSJ5xcL5_iSQ-7" value="Kết thúc" style="rounded=1;whiteSpace=wrap;html=1;" parent="1" vertex="1">
          <mxGeometry x="293" y="757" width="120" height="60" as="geometry" />
        </mxCell>
        <mxCell id="yAt8Nbbm446fbPezoDu1-1" value="Đúng" style="text;html=1;align=center;verticalAlign=middle;resizable=0;points=[];autosize=1;strokeColor=none;fillColor=none;" vertex="1" parent="1">
          <mxGeometry x="180" y="436" width="50" height="30" as="geometry" />
        </mxCell>
        <mxCell id="yAt8Nbbm446fbPezoDu1-2" value="Sai" style="text;html=1;align=center;verticalAlign=middle;resizable=0;points=[];autosize=1;strokeColor=none;fillColor=none;" vertex="1" parent="1">
          <mxGeometry x="261" y="331" width="40" height="30" as="geometry" />
        </mxCell>
      </root>
    </mxGraphModel>
  </diagram>
</mxfile>
